<svg xmlns="http://www.w3.org/2000/svg" viewBox="0 0 150 150" role="img"
    aria-label="Purple variant of circular plus logo">
    <defs>
        <linearGradient id="bg" x1="0" y1="0" x2="1" y2="1">
            <stop offset="0%" stop-color="#1d0f3a" />
            <stop offset="100%" stop-color="#0a081a" />
        </linearGradient>
        <linearGradient id="ring" x1="0" y1="0" x2="1" y2="1">
            <stop offset="0%" stop-color="#6c63ff" />
            <stop offset="100%" stop-color="#9f4dff" />
        </linearGradient>
        <linearGradient id="accent" x1="0" y1="0" x2="1" y2="1">
            <stop offset="0%" stop-color="#8a5cff" />
            <stop offset="100%" stop-color="#c26bff" />
        </linearGradient>
    </defs>
    <rect x="8" y="8" width="134" height="134" rx="24" fill="url(#bg)" stroke="#181533"
        stroke-width="6" />
    <path d="M50 47c12.5-16 38-16 52 .5" fill="none" stroke="url(#ring)" stroke-width="12"
        stroke-linecap="round" />
    <path d="M39 75a36 36 0 0 0 49 33.5" fill="none" stroke="url(#ring)" stroke-width="12"
        stroke-linecap="round" />
    <circle cx="101" cy="75" r="14" fill="url(#accent)" />
    <path
        d="M63 67h-7v-7c0-1.5-1.2-2.8-2.8-2.8h-2.4C49.3 57.2 48 58.4 48 60v7h-7c-1.6 0-2.9 1.3-2.9 2.9v2.3c0 1.5 1.3 2.8 2.9 2.8h7v7c0 1.6 1.3 2.9 2.8 2.9h2.4c1.6 0 2.8-1.3 2.8-2.9v-7h7c1.6 0 2.9-1.2 2.9-2.8v-2.4C65.9 68.3 64.6 67 63 67z"
        fill="#d9cbff" />
</svg>